<?xml version="1.0" encoding="UTF-8"?>
<svg width="20px" height="22px" viewBox="0 0 20 22" version="1.1" xmlns="http://www.w3.org/2000/svg" xmlns:xlink="http://www.w3.org/1999/xlink">
    <!-- Generator: Sketch 57.1 (83088) - https://sketch.com -->
    <title>项目图标/飞洛/区块链管理</title>
    <desc>Created with Sketch.</desc>
    <g id="页面-1" stroke="none" stroke-width="1" fill="none" fill-rule="evenodd">
        <g id="建设链数据分析平台" transform="translate(-775.000000, -164.000000)">
            <g id="编组-6" transform="translate(371.000000, 151.000000)">
                <g id="编组-4" transform="translate(182.000000, 0.000000)">
                    <g id="编组-3" transform="translate(218.000000, 10.000000)">
                        <g id="项目图标/飞洛/区块链管理">
                            <g id="icon+底部" opacity="0">
                                <g>
                                    <g id="bottom">
                                        <rect id="Rectangle" x="0" y="0" width="28" height="28"></rect>
                                    </g>
                                    <g id="icon绘制基线（16px）" transform="translate(4.666667, 4.666667)" opacity="0.45">
                                        <g id="Group" transform="translate(0.000000, -0.000000)">
                                            <path d="M1.16666667,17.5 L17.5,17.5 L17.5,1.16666667 L1.16666667,1.16666667 L1.16666667,17.5 Z M1.18572222,17.4818519 L17.4827593,17.4818519 L17.4827593,1.18390741 L1.18572222,1.18390741 L1.18572222,17.4818519 Z" id="正方形" fill="#00AA2A"></path>
                                            <path d="M2.33333333,18.6666667 L16.3333333,18.6666667 L16.3333333,1.15463195e-14 L2.33333333,1.15463195e-14 L2.33333333,18.6666667 Z M2.35170833,18.648 L16.3167083,18.648 L16.3167083,0.0177333333 L2.35170833,0.0177333333 L2.35170833,18.648 Z" id="垂直矩形" fill="#E9007E"></path>
                                            <path d="M8.8817842e-16,16.3333333 L18.6666667,16.3333333 L18.6666667,2.33333333 L8.8817842e-16,2.33333333 L8.8817842e-16,16.3333333 Z M0.0196,16.3158333 L18.6489333,16.3158333 L18.6489333,2.34995833 L0.0196,2.34995833 L0.0196,16.3158333 Z" id="水平矩形" fill="#3A4D8B"></path>
                                            <path d="M0.00807922948,16.171398 L0,16.1574038 L9.34545218,0 L18.6666667,16.171398 L0.00807922948,16.171398 Z M0.0242317457,16.1527516 L18.6585874,16.1667337 L9.34545218,0.00932990297 L0.0242317457,16.1527516 Z" id="三角" fill="#13C2C2" fill-rule="nonzero"></path>
                                            <path d="M9.33333333,4.66666667 C6.75616667,4.66666667 4.66666667,6.75616667 4.66666667,9.33333333 C4.66666667,11.9105 6.75616667,14 9.33333333,14 C11.9105,14 14,11.9105 14,9.33333333 C14,6.75616667 11.9105,4.66666667 9.33333333,4.66666667 M9.33333333,4.69 C11.893,4.69 13.9766667,6.77366667 13.9766667,9.33333333 C13.9766667,11.893 11.893,13.9766667 9.33333333,13.9766667 C6.77366667,13.9766667 4.69,11.893 4.69,9.33333333 C4.69,6.77366667 6.77366667,4.69 9.33333333,4.69" id="小圆" fill="#EF00CD"></path>
                                            <path d="M9.33333333,1.15463195e-14 L9.33333333,1.15463195e-14 C4.17853333,1.15463195e-14 8.8817842e-16,4.17946667 8.8817842e-16,9.33333333 C8.8817842e-16,14.4872 4.17853333,18.6666667 9.33333333,18.6666667 C14.4872,18.6666667 18.6666667,14.4872 18.6666667,9.33333333 C18.6666667,4.17946667 14.4872,1.15463195e-14 9.33333333,1.15463195e-14 M9.33333333,0.0186666667 C14.4694667,0.0186666667 18.648,4.1972 18.648,9.33333333 C18.648,14.4694667 14.4694667,18.648 9.33333333,18.648 C4.1972,18.648 0.0186666667,14.4694667 0.0186666667,9.33333333 C0.0186666667,4.1972 4.1972,0.0186666667 9.33333333,0.0186666667" id="大圆" fill="#FD6767"></path>
                                        </g>
                                    </g>
                                </g>
                            </g>
                            <g id="区块链管理" transform="translate(4.666667, 2.333333)">
                                <polygon id="Path" stroke="#6F86D6" stroke-width="2" points="9.41418333 8.17215 12.4453 9.92215 12.4453 13.42215 9.41418333 15.17215 6.38314833 13.42215 6.38314833 9.92215"></polygon>
                                <path d="M2.49799667,10.5315 L2.49799667,15.6651833 L9.41418333,19.6583333 L18.6642167,14.3026333 L18.6642167,16.8369833 L9.41418333,22.3526333 L0.164663333,17.0123333 L0.164663333,11.67215 L2.49799667,10.5315 Z M9.41418333,0.991643333 L18.66375,6.331885 L18.66375,11.67215 L16.3304167,12.8448833 L16.3304167,7.679035 L9.41418333,3.68594333 L0.116666667,8.91962167 L0.116666667,6.331885 L9.41418333,0.991643333 Z" id="Shape" fill="#6F86D6" fill-rule="nonzero"></path>
                            </g>
                        </g>
                    </g>
                </g>
            </g>
        </g>
    </g>
</svg>