<?xml version="1.0" encoding="UTF-8"?>
<svg width="19px" height="21px" viewBox="0 0 19 21" version="1.1" xmlns="http://www.w3.org/2000/svg" xmlns:xlink="http://www.w3.org/1999/xlink">
    <!-- Generator: Sketch 57.1 (83088) - https://sketch.com -->
    <title>通用性/证书/搜索</title>
    <desc>Created with Sketch.</desc>
    <g id="页面-1" stroke="none" stroke-width="1" fill="none" fill-rule="evenodd">
        <g id="建设链数据分析平台" transform="translate(-586.000000, -166.000000)">
            <g id="编组-6" transform="translate(371.000000, 151.000000)">
                <g id="编组-4" transform="translate(182.000000, 0.000000)">
                    <g id="编组-2" transform="translate(33.000000, 14.000000)">
                        <g id="通用性/证书/搜索" transform="translate(1.000000, 2.000000)">
                            <g id="certificate-Sharp" transform="translate(0.833333, 0.833333)">
                                <polyline id="Path" stroke="#6F86D6" stroke-width="2" points="8 16.8 0 16.8 0 0 14.9333333 0 14.9333333 9.975"></polyline>
                                <path d="M3.01176471,5.04313725 L11.0431373,5.04313725" id="Path-32" stroke="#6F86D6" stroke-width="2"></path>
                                <path d="M2.91666667,9.33333333 L7.58333333,9.33333333" id="Path-32-Copy-2" stroke="#6F86D6" stroke-width="2"></path>
                                <path d="M12.5272639,10.85 C14.4199584,10.85 15.9545278,12.3807179 15.9545278,14.2692476 C15.9545278,14.8085561 15.8287223,15.3333481 15.5855337,15.8128047 L15.5085,15.9506667 L16.6593543,17.1093265 L16.3686197,17.4122414 L15.5352387,18.2467075 L15.3693704,18.4158442 L14.2111667,17.2445 L14.0697157,17.3233925 C13.9117134,17.4029154 13.7476618,17.4700151 13.578303,17.5242545 L13.320377,17.5959138 L13.0550466,17.6479551 L12.7885382,17.6785112 L12.5272639,17.6884952 C10.6345694,17.6884952 9.1,16.1577774 9.1,14.2692476 C9.1,12.3807179 10.6345694,10.85 12.5272639,10.85 Z M12.5272639,12.7423484 C11.6814035,12.7423484 10.9959356,13.4260959 10.9959356,14.2692476 C10.9959356,15.1123994 11.6814035,15.7961469 12.5272639,15.7961469 C13.3731242,15.7961469 14.0585922,15.1123994 14.0585922,14.2692476 C14.0585922,13.4260959 13.3731242,12.7423484 12.5272639,12.7423484 Z" id="Combined-Shape" fill="#6F86D6" fill-rule="nonzero"></path>
                            </g>
                        </g>
                    </g>
                </g>
            </g>
        </g>
    </g>
</svg>